# xmcd
#
# Track frame offsets:
# 150
# 15442
# 31497
# 44955
# 59043
# 74945
# 87099
# 99047
# 118069
# 129722
# 143217
# 153586
# 170707
# 180494
# 193323
# 205168
# 218960
# 235957
# 247029
#
# Disc length: 3445 seconds
#
# Revision: 0
# Processed by: cddbd v1.5.1PL0 Copyright (c) Steve Scherf et al.
# Submitted via: Audion 3.0.2 (http://www.panic.com/audion/)
#
DISCID=2a0d7313
DTITLE=red tent - disc 7
DYEAR=1900
DGENRE=
TTITLE0=chapter
TTITLE1=chapter
TTITLE2=chapter
TTITLE3=chapter
TTITLE4=chapter
TTITLE5=chapter
TTITLE6=chapter
TTITLE7=chapter
TTITLE8=chapter
TTITLE9=chapter
TTITLE10=chapter
TTITLE11=chapter
TTITLE12=chapter
TTITLE13=chapter
TTITLE14=chapter
TTITLE15=chapter
TTITLE16=chapter
TTITLE17=chapter
TTITLE18=chapter
EXTD=
EXTT0=
EXTT1=
EXTT2=
EXTT3=
EXTT4=
EXTT5=
EXTT6=
EXTT7=
EXTT8=
EXTT9=
EXTT10=
EXTT11=
EXTT12=
EXTT13=
EXTT14=
EXTT15=
EXTT16=
EXTT17=
EXTT18=
PLAYORDER=
